<svg width="14" height="14" viewBox="0 0 14 14" fill="none" xmlns="http://www.w3.org/2000/svg">
<g clip-path="url(#clip0)">
<path d="M12.6892 1.38271C10.9442 -0.460903 8.10494 -0.460903 6.35997 1.38271L0.93465 7.1148C-0.311628 8.43174 -0.311546 10.5745 0.934869 11.8914C1.55812 12.5499 2.37652 12.8791 3.19525 12.8791C4.01376 12.879 4.83254 12.5498 5.45571 11.8914L10.4287 6.63704C11.1766 5.847 11.1767 4.56132 10.4288 3.771C9.68091 2.98087 8.46399 2.9809 7.71625 3.77114L4.46411 7.20711C4.21443 7.47088 4.21443 7.8986 4.46406 8.16243C4.71379 8.42623 5.11853 8.42623 5.36826 8.16243L8.62046 4.72637C8.86972 4.46298 9.27537 4.46298 9.52464 4.72629C9.7739 4.98974 9.7739 5.41824 9.52455 5.68164L4.55158 10.9361C3.80368 11.7262 2.58687 11.7263 1.83902 10.9361C1.09119 10.146 1.09111 8.86028 1.83886 8.07009L7.26415 2.33803C8.51056 1.02123 10.5386 1.02118 11.785 2.33809C12.3888 2.97599 12.7214 3.82418 12.7213 4.72634C12.7213 5.62853 12.3888 6.4767 11.785 7.11466L6.35983 12.8468C6.11016 13.1106 6.11016 13.5383 6.35989 13.8022C6.48474 13.9341 6.64836 14 6.81196 14C6.97556 14 7.13921 13.934 7.26407 13.8022L12.6891 8.07004C13.5345 7.17695 14 5.98949 14 4.7264C14.0001 3.46325 13.5345 2.2758 12.6892 1.38271Z" fill="black"/>
</g>
<defs>
<clipPath id="clip0">
<rect width="14" height="14" fill="white"/>
</clipPath>
</defs>
</svg>
