<svg width="14" height="14" viewBox="0 0 14 14" fill="none" xmlns="http://www.w3.org/2000/svg">
<path d="M13.3 0.7H11.2V0H2.8V0.7H0.7C0.28 0.7 0 0.98 0 1.4V3.08C0 4.69 1.19 6.02 2.8 6.23V6.3C2.8 8.33 4.2 10.01 6.09 10.43L5.6 11.9H3.99C3.71 11.9 3.43 12.11 3.36 12.39L2.8 14H11.2L10.64 12.39C10.57 12.11 10.29 11.9 10.01 11.9H8.4L7.91 10.43C9.8 10.01 11.2 8.33 11.2 6.3V6.23C12.81 6.02 14 4.69 14 3.08V1.4C14 0.98 13.72 0.7 13.3 0.7ZM2.8 4.83C2.03 4.62 1.4 3.92 1.4 3.08V2.1H2.8V4.83ZM12.6 3.08C12.6 3.92 11.97 4.69 11.2 4.83V2.1H12.6V3.08Z" fill="#3A79ED"/>
</svg>
