<svg width="14" height="14" viewBox="0 0 14 14" fill="none" xmlns="http://www.w3.org/2000/svg">
<path d="M7.53548 9.6776L5.39341 11.8197C5.39341 11.8197 5.39341 11.8198 5.39336 11.8198C5.39336 11.8198 5.39336 11.8198 5.39331 11.8198C4.5075 12.7057 3.0661 12.7057 2.18019 11.8198C1.75102 11.3906 1.51472 10.82 1.51472 10.2132C1.51472 9.6064 1.75102 9.03591 2.18004 8.60674C2.18009 8.60669 2.18014 8.60664 2.18019 8.60659L4.32225 6.46447C4.61798 6.1687 4.61798 5.68914 4.3222 5.39341C4.02648 5.09769 3.54692 5.09769 3.25114 5.39341L1.10908 7.53553C1.10893 7.53568 1.10878 7.53588 1.10862 7.53603C0.393726 8.25118 0 9.20197 0 10.2132C0 11.2247 0.393878 12.1756 1.10913 12.8909C1.8474 13.6291 2.81708 13.9982 3.7868 13.9982C4.75652 13.9982 5.72625 13.6291 6.46442 12.8909V12.8908C6.46447 12.8908 6.46447 12.8908 6.46447 12.8908L8.60654 10.7487C8.90226 10.4529 8.90226 9.97337 8.60649 9.6776C8.31081 9.38187 7.8313 9.38187 7.53548 9.6776Z" fill="black"/>
<path d="M13.9999 3.78679C13.9999 2.77531 13.606 1.82437 12.8907 1.10911C11.4142 -0.367333 9.01183 -0.367283 7.53544 1.10911C7.53538 1.10922 7.53528 1.10927 7.53523 1.10937L5.39322 3.25133C5.09744 3.54706 5.09744 4.02667 5.39322 4.32239C5.54116 4.47033 5.73494 4.54425 5.92877 4.54425C6.12256 4.54425 6.31644 4.47028 6.46428 4.32239L8.60629 2.18043C8.60634 2.18032 8.60644 2.18027 8.60654 2.18017C9.49235 1.29437 10.9338 1.29431 11.8197 2.18017C12.2488 2.60934 12.4852 3.17994 12.4852 3.78679C12.4852 4.39358 12.2489 4.96408 11.8198 5.39325C11.8198 5.3933 11.8197 5.39335 11.8197 5.3934L9.6776 7.53552C9.38188 7.83124 9.38188 8.3108 9.67765 8.60657C9.82554 8.75446 10.0194 8.82843 10.2132 8.82843C10.407 8.82843 10.6008 8.75446 10.7487 8.60657L12.8908 6.46446C12.8909 6.46431 12.8911 6.4641 12.8912 6.46395C13.6061 5.7488 13.9999 4.79801 13.9999 3.78679Z" fill="black"/>
<path d="M4.32242 9.6776C4.4703 9.82548 4.66414 9.89945 4.85792 9.89945C5.05175 9.89945 5.24559 9.82548 5.39347 9.6776L9.6777 5.39336C9.97347 5.09763 9.97347 4.61807 9.6777 4.3223C9.38198 4.02657 8.90242 4.02657 8.60664 4.3223L4.32242 8.60649C4.02664 8.90231 4.02664 9.38187 4.32242 9.6776Z" fill="black"/>
</svg>
