<svg width="14" height="14" viewBox="0 0 14 14" fill="none" xmlns="http://www.w3.org/2000/svg">
<g clip-path="url(#clip0)">
<path d="M13.9799 5.39373C13.9317 5.24523 13.8033 5.137 13.6488 5.11458L9.30878 4.4839L7.3678 0.551145C7.29873 0.411146 7.15613 0.322525 7.00002 0.322525C6.84389 0.322525 6.70132 0.411146 6.63222 0.551145L4.69115 4.4839L0.351171 5.11458C0.196707 5.137 0.0683282 5.24523 0.020094 5.3937C-0.0281676 5.54221 0.0120823 5.7052 0.12389 5.81417L3.26425 8.8754L2.52302 13.198C2.49661 13.3519 2.55988 13.5073 2.68618 13.5991C2.75763 13.651 2.84226 13.6774 2.9273 13.6774C2.99259 13.6774 3.05811 13.6619 3.1181 13.6303L7 11.5894L10.8817 13.6303C11.0199 13.7029 11.1874 13.6909 11.3137 13.5991C11.44 13.5073 11.5033 13.3518 11.4769 13.1979L10.7354 8.8754L13.8761 5.81414C13.9879 5.7052 14.0282 5.54221 13.9799 5.39373Z" fill="#3A79ED"/>
</g>
<defs>
<clipPath id="clip0">
<rect width="14" height="14" fill="white"/>
</clipPath>
</defs>
</svg>
