<svg width="149" height="21" viewBox="0 0 149 21" fill="none" xmlns="http://www.w3.org/2000/svg">
<path d="M7.54 16H4.14V4.54H0.44V1.72H11.24V4.54H7.54V16ZM24.8286 8.84C24.8286 10.32 24.5886 11.6133 24.1086 12.72C23.6286 13.8133 22.8819 14.6667 21.8686 15.28C20.8553 15.8933 19.5553 16.2 17.9686 16.2C16.3953 16.2 15.1019 15.8933 14.0886 15.28C13.0753 14.6667 12.3219 13.8067 11.8286 12.7C11.3486 11.5933 11.1086 10.3 11.1086 8.82C11.1086 7.34 11.3486 6.05333 11.8286 4.96C12.3219 3.86667 13.0753 3.02 14.0886 2.42C15.1019 1.80667 16.4019 1.5 17.9886 1.5C19.5753 1.5 20.8686 1.80667 21.8686 2.42C22.8819 3.02 23.6286 3.87333 24.1086 4.98C24.5886 6.07333 24.8286 7.36 24.8286 8.84ZM14.6886 8.84C14.6886 10.24 14.9419 11.34 15.4486 12.14C15.9686 12.94 16.8086 13.34 17.9686 13.34C19.1553 13.34 19.9953 12.94 20.4886 12.14C20.9953 11.34 21.2486 10.24 21.2486 8.84C21.2486 7.44 20.9953 6.34 20.4886 5.54C19.9953 4.72667 19.1619 4.32 17.9886 4.32C16.8153 4.32 15.9686 4.72667 15.4486 5.54C14.9419 6.34 14.6886 7.44 14.6886 8.84ZM39.4066 16H35.0066L29.2466 5.54H29.1666C29.1932 6.11333 29.2199 6.75333 29.2466 7.46C29.2866 8.15333 29.3199 8.8 29.3466 9.4V16H26.3066V1.72H30.6866L36.4266 12.06H36.4866C36.4599 11.4867 36.4332 10.8733 36.4066 10.22C36.3799 9.55333 36.3599 8.92667 36.3466 8.34V1.72H39.4066V16Z" fill="#3A79ED"/>
<path d="M45.9514 16.2C44.2981 16.2 43.0047 15.7533 42.0714 14.86C41.1381 13.9533 40.6714 12.52 40.6714 10.56C40.6714 9.22667 40.9047 8.14 41.3714 7.3C41.8514 6.44667 42.5114 5.82 43.3514 5.42C44.1914 5.02 45.1514 4.82 46.2314 4.82C46.9514 4.82 47.5981 4.89333 48.1714 5.04C48.7581 5.18667 49.2781 5.37333 49.7314 5.6L48.7514 8.14C48.2847 7.94 47.8514 7.78667 47.4514 7.68C47.0514 7.56 46.6447 7.5 46.2314 7.5C45.5514 7.5 45.0247 7.75333 44.6514 8.26C44.2781 8.76667 44.0914 9.52667 44.0914 10.54C44.0914 11.5667 44.2847 12.32 44.6714 12.8C45.0581 13.2667 45.5847 13.5 46.2514 13.5C46.8381 13.5 47.3847 13.42 47.8914 13.26C48.4114 13.0867 48.9047 12.8467 49.3714 12.54V15.3C48.9181 15.5933 48.4247 15.82 47.8914 15.98C47.3581 16.1267 46.7114 16.2 45.9514 16.2ZM55.3787 4.8C56.8054 4.8 57.9121 5.13333 58.6987 5.8C59.4854 6.46667 59.8788 7.44 59.8788 8.72V16H57.5387L56.8787 14.52H56.7987C56.3321 15.12 55.8387 15.5533 55.3187 15.82C54.7987 16.0733 54.0854 16.2 53.1787 16.2C52.2054 16.2 51.3987 15.9133 50.7587 15.34C50.1187 14.7667 49.7987 13.88 49.7987 12.68C49.7987 11.52 50.2054 10.66 51.0187 10.1C51.8454 9.52667 53.0521 9.20667 54.6387 9.14L56.5187 9.08V8.76C56.5187 8.22667 56.3787 7.84 56.0987 7.6C55.8321 7.36 55.4587 7.24 54.9787 7.24C54.4987 7.24 53.9987 7.32 53.4787 7.48C52.9587 7.62667 52.4321 7.81333 51.8987 8.04L50.8787 5.8C51.4787 5.48 52.1587 5.23333 52.9187 5.06C53.6787 4.88667 54.4987 4.8 55.3787 4.8ZM55.4987 11.04C54.6587 11.0667 54.0721 11.22 53.7387 11.5C53.4054 11.7667 53.2387 12.1333 53.2387 12.6C53.2387 13.0133 53.3587 13.3133 53.5987 13.5C53.8387 13.6867 54.1454 13.78 54.5187 13.78C55.0787 13.78 55.5521 13.6133 55.9387 13.28C56.3254 12.9333 56.5187 12.4667 56.5187 11.88V11L55.4987 11.04ZM66.4044 13.52C66.7377 13.52 67.051 13.4867 67.3444 13.42C67.651 13.3533 67.9577 13.2667 68.2644 13.16V15.64C67.9044 15.8 67.491 15.9333 67.0244 16.04C66.5577 16.1467 66.0044 16.2 65.3644 16.2C64.6844 16.2 64.0777 16.0933 63.5444 15.88C63.0244 15.6533 62.611 15.2733 62.3044 14.74C62.011 14.2067 61.8644 13.4533 61.8644 12.48V7.54H60.4644V6.14L62.1444 5.06L63.0644 2.74H65.2244V5.02H68.1444V7.54H65.2244V12.36C65.2244 12.7467 65.331 13.04 65.5444 13.24C65.7577 13.4267 66.0444 13.52 66.4044 13.52ZM73.9702 4.8C75.3968 4.8 76.5035 5.13333 77.2902 5.8C78.0768 6.46667 78.4702 7.44 78.4702 8.72V16H76.1302L75.4702 14.52H75.3902C74.9235 15.12 74.4302 15.5533 73.9102 15.82C73.3902 16.0733 72.6768 16.2 71.7702 16.2C70.7968 16.2 69.9902 15.9133 69.3502 15.34C68.7102 14.7667 68.3902 13.88 68.3902 12.68C68.3902 11.52 68.7968 10.66 69.6102 10.1C70.4368 9.52667 71.6435 9.20667 73.2302 9.14L75.1102 9.08V8.76C75.1102 8.22667 74.9702 7.84 74.6902 7.6C74.4235 7.36 74.0502 7.24 73.5702 7.24C73.0902 7.24 72.5902 7.32 72.0702 7.48C71.5502 7.62667 71.0235 7.81333 70.4902 8.04L69.4702 5.8C70.0702 5.48 70.7502 5.23333 71.5102 5.06C72.2702 4.88667 73.0902 4.8 73.9702 4.8ZM74.0902 11.04C73.2502 11.0667 72.6635 11.22 72.3302 11.5C71.9968 11.7667 71.8302 12.1333 71.8302 12.6C71.8302 13.0133 71.9502 13.3133 72.1902 13.5C72.4302 13.6867 72.7368 13.78 73.1102 13.78C73.6702 13.78 74.1435 13.6133 74.5302 13.28C74.9168 12.9333 75.1102 12.4667 75.1102 11.88V11L74.0902 11.04ZM83.3958 16H80.0158V0.799999H83.3958V16ZM95.2053 10.48C95.2053 12.32 94.7186 13.7333 93.7453 14.72C92.7853 15.7067 91.4653 16.2 89.7853 16.2C88.7453 16.2 87.8186 15.98 87.0053 15.54C86.2053 15.0867 85.572 14.44 85.1053 13.6C84.652 12.7467 84.4253 11.7067 84.4253 10.48C84.4253 8.66667 84.9053 7.27333 85.8653 6.3C86.8386 5.31333 88.1653 4.82 89.8453 4.82C90.8853 4.82 91.8053 5.04 92.6053 5.48C93.4186 5.92 94.052 6.56 94.5053 7.4C94.972 8.24 95.2053 9.26667 95.2053 10.48ZM87.8453 10.48C87.8453 11.5067 87.9986 12.2867 88.3053 12.82C88.612 13.34 89.1186 13.6 89.8253 13.6C90.5186 13.6 91.0186 13.34 91.3253 12.82C91.632 12.2867 91.7853 11.5067 91.7853 10.48C91.7853 9.46667 91.632 8.70667 91.3253 8.2C91.0186 7.68 90.512 7.42 89.8053 7.42C89.112 7.42 88.612 7.68 88.3053 8.2C87.9986 8.70667 87.8453 9.46667 87.8453 10.48ZM99.7644 4.82C100.484 4.82 101.098 4.96 101.604 5.24C102.111 5.52 102.531 5.90667 102.864 6.4H102.944L103.204 5.02H106.084V16.02C106.084 17.58 105.611 18.7667 104.664 19.58C103.731 20.3933 102.318 20.8 100.424 20.8C99.5977 20.8 98.851 20.7533 98.1844 20.66C97.5177 20.5667 96.8644 20.4 96.2244 20.16V17.42C96.9044 17.7 97.571 17.9067 98.2244 18.04C98.8777 18.1867 99.611 18.26 100.424 18.26C101.958 18.26 102.724 17.56 102.724 16.16V15.94C102.724 15.7533 102.731 15.54 102.744 15.3C102.771 15.0467 102.798 14.8067 102.824 14.58H102.724C102.404 15.1 101.991 15.5 101.484 15.78C100.991 16.06 100.398 16.2 99.7044 16.2C98.4644 16.2 97.4777 15.7067 96.7444 14.72C96.0244 13.7333 95.6644 12.3333 95.6644 10.52C95.6644 8.69333 96.031 7.28667 96.7644 6.3C97.511 5.31333 98.511 4.82 99.7644 4.82ZM100.944 7.48C99.7044 7.48 99.0844 8.51333 99.0844 10.58C99.0844 11.6067 99.2377 12.3667 99.5444 12.86C99.8644 13.34 100.344 13.58 100.984 13.58C101.691 13.58 102.198 13.3733 102.504 12.96C102.811 12.5467 102.964 11.8667 102.964 10.92V10.5C102.964 9.47333 102.811 8.71333 102.504 8.22C102.211 7.72667 101.691 7.48 100.944 7.48ZM107.238 14.5C107.238 13.8467 107.418 13.3933 107.778 13.14C108.152 12.8733 108.598 12.74 109.118 12.74C109.625 12.74 110.058 12.8733 110.418 13.14C110.778 13.3933 110.958 13.8467 110.958 14.5C110.958 15.1267 110.778 15.58 110.418 15.86C110.058 16.1267 109.625 16.26 109.118 16.26C108.598 16.26 108.152 16.1267 107.778 15.86C107.418 15.58 107.238 15.1267 107.238 14.5ZM116.84 16.2C115.187 16.2 113.894 15.7533 112.96 14.86C112.027 13.9533 111.56 12.52 111.56 10.56C111.56 9.22667 111.794 8.14 112.26 7.3C112.74 6.44667 113.4 5.82 114.24 5.42C115.08 5.02 116.04 4.82 117.12 4.82C117.84 4.82 118.487 4.89333 119.06 5.04C119.647 5.18667 120.167 5.37333 120.62 5.6L119.64 8.14C119.174 7.94 118.74 7.78667 118.34 7.68C117.94 7.56 117.534 7.5 117.12 7.5C116.44 7.5 115.914 7.75333 115.54 8.26C115.167 8.76667 114.98 9.52667 114.98 10.54C114.98 11.5667 115.174 12.32 115.56 12.8C115.947 13.2667 116.474 13.5 117.14 13.5C117.727 13.5 118.274 13.42 118.78 13.26C119.3 13.0867 119.794 12.8467 120.26 12.54V15.3C119.807 15.5933 119.314 15.82 118.78 15.98C118.247 16.1267 117.6 16.2 116.84 16.2ZM124.728 16H121.348V0.799999H124.728V16ZM136.697 5.02V16H134.137L133.697 14.6H133.497C133.151 15.16 132.677 15.5667 132.077 15.82C131.477 16.0733 130.837 16.2 130.157 16.2C129.024 16.2 128.091 15.88 127.357 15.24C126.637 14.6 126.277 13.58 126.277 12.18V5.02H129.657V11.24C129.657 11.9867 129.777 12.5533 130.017 12.94C130.271 13.3267 130.671 13.52 131.217 13.52C132.031 13.52 132.584 13.22 132.877 12.62C133.171 12.02 133.317 11.1533 133.317 10.02V5.02H136.697ZM141.659 4.3C141.659 4.7 141.646 5.09333 141.619 5.48C141.592 5.85333 141.559 6.17333 141.519 6.44H141.659C141.939 5.98667 142.319 5.60667 142.799 5.3C143.279 4.98 143.906 4.82 144.679 4.82C145.866 4.82 146.832 5.3 147.579 6.26C148.339 7.22 148.719 8.62667 148.719 10.48C148.719 12.36 148.332 13.7867 147.559 14.76C146.799 15.72 145.806 16.2 144.579 16.2C143.792 16.2 143.179 16.06 142.739 15.78C142.299 15.5 141.939 15.1933 141.659 14.86H141.439L140.899 16H138.279V0.799999H141.659V4.3ZM143.519 7.48C142.852 7.48 142.379 7.7 142.099 8.14C141.819 8.56667 141.672 9.22667 141.659 10.12V10.54C141.659 11.5 141.792 12.2333 142.059 12.74C142.339 13.2333 142.839 13.48 143.559 13.48C144.092 13.48 144.512 13.22 144.819 12.7C145.126 12.18 145.279 11.4267 145.279 10.44C145.279 8.46667 144.692 7.48 143.519 7.48Z" fill="black"/>
</svg>
