<svg width="149" height="21" viewBox="0 0 149 21" fill="none" xmlns="http://www.w3.org/2000/svg">
<path d="M7.54 16H4.14V4.54H0.44V1.72H11.24V4.54H7.54V16ZM24.7286 8.84C24.7286 10.32 24.4886 11.6133 24.0086 12.72C23.5286 13.8133 22.7819 14.6667 21.7686 15.28C20.7553 15.8933 19.4553 16.2 17.8686 16.2C16.2953 16.2 15.0019 15.8933 13.9886 15.28C12.9753 14.6667 12.2219 13.8067 11.7286 12.7C11.2486 11.5933 11.0086 10.3 11.0086 8.82C11.0086 7.34 11.2486 6.05333 11.7286 4.96C12.2219 3.86667 12.9753 3.02 13.9886 2.42C15.0019 1.80667 16.3019 1.5 17.8886 1.5C19.4753 1.5 20.7686 1.80667 21.7686 2.42C22.7819 3.02 23.5286 3.87333 24.0086 4.98C24.4886 6.07333 24.7286 7.36 24.7286 8.84ZM14.5886 8.84C14.5886 10.24 14.8419 11.34 15.3486 12.14C15.8686 12.94 16.7086 13.34 17.8686 13.34C19.0553 13.34 19.8953 12.94 20.3886 12.14C20.8953 11.34 21.1486 10.24 21.1486 8.84C21.1486 7.44 20.8953 6.34 20.3886 5.54C19.8953 4.72667 19.0619 4.32 17.8886 4.32C16.7153 4.32 15.8686 4.72667 15.3486 5.54C14.8419 6.34 14.5886 7.44 14.5886 8.84ZM39.2066 16H34.8066L29.0466 5.54H28.9666C28.9932 6.11333 29.0199 6.75333 29.0466 7.46C29.0866 8.15333 29.1199 8.8 29.1466 9.4V16H26.1066V1.72H30.4866L36.2266 12.06H36.2866C36.2599 11.4867 36.2332 10.8733 36.2066 10.22C36.1799 9.55333 36.1599 8.92667 36.1466 8.34V1.72H39.2066V16Z" fill="#3A79ED"/>
<path d="M45.6514 16.2C43.9981 16.2 42.7047 15.7533 41.7714 14.86C40.8381 13.9533 40.3714 12.52 40.3714 10.56C40.3714 9.22667 40.6047 8.14 41.0714 7.3C41.5514 6.44667 42.2114 5.82 43.0514 5.42C43.8914 5.02 44.8514 4.82 45.9314 4.82C46.6514 4.82 47.2981 4.89333 47.8714 5.04C48.4581 5.18667 48.9781 5.37333 49.4314 5.6L48.4514 8.14C47.9847 7.94 47.5514 7.78667 47.1514 7.68C46.7514 7.56 46.3447 7.5 45.9314 7.5C45.2514 7.5 44.7247 7.75333 44.3514 8.26C43.9781 8.76667 43.7914 9.52667 43.7914 10.54C43.7914 11.5667 43.9847 12.32 44.3714 12.8C44.7581 13.2667 45.2847 13.5 45.9514 13.5C46.5381 13.5 47.0847 13.42 47.5914 13.26C48.1114 13.0867 48.6047 12.8467 49.0714 12.54V15.3C48.6181 15.5933 48.1247 15.82 47.5914 15.98C47.0581 16.1267 46.4114 16.2 45.6514 16.2ZM54.9788 4.8C56.4054 4.8 57.5121 5.13333 58.2988 5.8C59.0854 6.46667 59.4788 7.44 59.4788 8.72V16H57.1388L56.4788 14.52H56.3988C55.9321 15.12 55.4388 15.5533 54.9188 15.82C54.3988 16.0733 53.6854 16.2 52.7788 16.2C51.8054 16.2 50.9988 15.9133 50.3588 15.34C49.7188 14.7667 49.3988 13.88 49.3988 12.68C49.3988 11.52 49.8054 10.66 50.6188 10.1C51.4454 9.52667 52.6521 9.20667 54.2388 9.14L56.1188 9.08V8.76C56.1188 8.22667 55.9788 7.84 55.6988 7.6C55.4321 7.36 55.0588 7.24 54.5788 7.24C54.0988 7.24 53.5988 7.32 53.0788 7.48C52.5588 7.62667 52.0321 7.81333 51.4988 8.04L50.4788 5.8C51.0788 5.48 51.7588 5.23333 52.5188 5.06C53.2788 4.88667 54.0988 4.8 54.9788 4.8ZM55.0988 11.04C54.2588 11.0667 53.6721 11.22 53.3388 11.5C53.0054 11.7667 52.8388 12.1333 52.8388 12.6C52.8388 13.0133 52.9588 13.3133 53.1988 13.5C53.4388 13.6867 53.7454 13.78 54.1188 13.78C54.6788 13.78 55.1521 13.6133 55.5388 13.28C55.9254 12.9333 56.1188 12.4667 56.1188 11.88V11L55.0988 11.04ZM65.9044 13.52C66.2377 13.52 66.551 13.4867 66.8444 13.42C67.151 13.3533 67.4577 13.2667 67.7644 13.16V15.64C67.4044 15.8 66.991 15.9333 66.5244 16.04C66.0577 16.1467 65.5044 16.2 64.8644 16.2C64.1844 16.2 63.5777 16.0933 63.0444 15.88C62.5244 15.6533 62.111 15.2733 61.8044 14.74C61.511 14.2067 61.3644 13.4533 61.3644 12.48V7.54H59.9644V6.14L61.6444 5.06L62.5644 2.74H64.7244V5.02H67.6444V7.54H64.7244V12.36C64.7244 12.7467 64.831 13.04 65.0444 13.24C65.2577 13.4267 65.5444 13.52 65.9044 13.52ZM73.3702 4.8C74.7968 4.8 75.9035 5.13333 76.6902 5.8C77.4768 6.46667 77.8702 7.44 77.8702 8.72V16H75.5302L74.8702 14.52H74.7902C74.3235 15.12 73.8302 15.5533 73.3102 15.82C72.7902 16.0733 72.0768 16.2 71.1702 16.2C70.1968 16.2 69.3902 15.9133 68.7502 15.34C68.1102 14.7667 67.7902 13.88 67.7902 12.68C67.7902 11.52 68.1968 10.66 69.0102 10.1C69.8368 9.52667 71.0435 9.20667 72.6302 9.14L74.5102 9.08V8.76C74.5102 8.22667 74.3702 7.84 74.0902 7.6C73.8235 7.36 73.4502 7.24 72.9702 7.24C72.4902 7.24 71.9902 7.32 71.4702 7.48C70.9502 7.62667 70.4235 7.81333 69.8902 8.04L68.8702 5.8C69.4702 5.48 70.1502 5.23333 70.9102 5.06C71.6702 4.88667 72.4902 4.8 73.3702 4.8ZM73.4902 11.04C72.6502 11.0667 72.0635 11.22 71.7302 11.5C71.3968 11.7667 71.2302 12.1333 71.2302 12.6C71.2302 13.0133 71.3502 13.3133 71.5902 13.5C71.8302 13.6867 72.1368 13.78 72.5102 13.78C73.0702 13.78 73.5435 13.6133 73.9302 13.28C74.3168 12.9333 74.5102 12.4667 74.5102 11.88V11L73.4902 11.04ZM82.6958 16H79.3158V0.799999H82.6958V16ZM94.4053 10.48C94.4053 12.32 93.9186 13.7333 92.9453 14.72C91.9853 15.7067 90.6653 16.2 88.9853 16.2C87.9453 16.2 87.0186 15.98 86.2053 15.54C85.4053 15.0867 84.772 14.44 84.3053 13.6C83.852 12.7467 83.6253 11.7067 83.6253 10.48C83.6253 8.66667 84.1053 7.27333 85.0653 6.3C86.0386 5.31333 87.3653 4.82 89.0453 4.82C90.0853 4.82 91.0053 5.04 91.8053 5.48C92.6186 5.92 93.252 6.56 93.7053 7.4C94.172 8.24 94.4053 9.26667 94.4053 10.48ZM87.0453 10.48C87.0453 11.5067 87.1986 12.2867 87.5053 12.82C87.812 13.34 88.3186 13.6 89.0253 13.6C89.7186 13.6 90.2186 13.34 90.5253 12.82C90.832 12.2867 90.9853 11.5067 90.9853 10.48C90.9853 9.46667 90.832 8.70667 90.5253 8.2C90.2186 7.68 89.712 7.42 89.0053 7.42C88.312 7.42 87.812 7.68 87.5053 8.2C87.1986 8.70667 87.0453 9.46667 87.0453 10.48ZM98.8644 4.82C99.5844 4.82 100.198 4.96 100.704 5.24C101.211 5.52 101.631 5.90667 101.964 6.4H102.044L102.304 5.02H105.184V16.02C105.184 17.58 104.711 18.7667 103.764 19.58C102.831 20.3933 101.418 20.8 99.5244 20.8C98.6977 20.8 97.951 20.7533 97.2844 20.66C96.6177 20.5667 95.9644 20.4 95.3244 20.16V17.42C96.0044 17.7 96.671 17.9067 97.3244 18.04C97.9777 18.1867 98.711 18.26 99.5244 18.26C101.058 18.26 101.824 17.56 101.824 16.16V15.94C101.824 15.7533 101.831 15.54 101.844 15.3C101.871 15.0467 101.898 14.8067 101.924 14.58H101.824C101.504 15.1 101.091 15.5 100.584 15.78C100.091 16.06 99.4977 16.2 98.8044 16.2C97.5644 16.2 96.5777 15.7067 95.8444 14.72C95.1244 13.7333 94.7644 12.3333 94.7644 10.52C94.7644 8.69333 95.131 7.28667 95.8644 6.3C96.611 5.31333 97.611 4.82 98.8644 4.82ZM100.044 7.48C98.8044 7.48 98.1844 8.51333 98.1844 10.58C98.1844 11.6067 98.3377 12.3667 98.6444 12.86C98.9644 13.34 99.4444 13.58 100.084 13.58C100.791 13.58 101.298 13.3733 101.604 12.96C101.911 12.5467 102.064 11.8667 102.064 10.92V10.5C102.064 9.47333 101.911 8.71333 101.604 8.22C101.311 7.72667 100.791 7.48 100.044 7.48ZM106.238 14.5C106.238 13.8467 106.418 13.3933 106.778 13.14C107.152 12.8733 107.598 12.74 108.118 12.74C108.625 12.74 109.058 12.8733 109.418 13.14C109.778 13.3933 109.958 13.8467 109.958 14.5C109.958 15.1267 109.778 15.58 109.418 15.86C109.058 16.1267 108.625 16.26 108.118 16.26C107.598 16.26 107.152 16.1267 106.778 15.86C106.418 15.58 106.238 15.1267 106.238 14.5ZM115.74 16.2C114.087 16.2 112.794 15.7533 111.86 14.86C110.927 13.9533 110.46 12.52 110.46 10.56C110.46 9.22667 110.694 8.14 111.16 7.3C111.64 6.44667 112.3 5.82 113.14 5.42C113.98 5.02 114.94 4.82 116.02 4.82C116.74 4.82 117.387 4.89333 117.96 5.04C118.547 5.18667 119.067 5.37333 119.52 5.6L118.54 8.14C118.074 7.94 117.64 7.78667 117.24 7.68C116.84 7.56 116.434 7.5 116.02 7.5C115.34 7.5 114.814 7.75333 114.44 8.26C114.067 8.76667 113.88 9.52667 113.88 10.54C113.88 11.5667 114.074 12.32 114.46 12.8C114.847 13.2667 115.374 13.5 116.04 13.5C116.627 13.5 117.174 13.42 117.68 13.26C118.2 13.0867 118.694 12.8467 119.16 12.54V15.3C118.707 15.5933 118.214 15.82 117.68 15.98C117.147 16.1267 116.5 16.2 115.74 16.2ZM130.368 10.48C130.368 12.32 129.881 13.7333 128.908 14.72C127.948 15.7067 126.628 16.2 124.948 16.2C123.908 16.2 122.981 15.98 122.168 15.54C121.368 15.0867 120.734 14.44 120.268 13.6C119.814 12.7467 119.588 11.7067 119.588 10.48C119.588 8.66667 120.068 7.27333 121.028 6.3C122.001 5.31333 123.328 4.82 125.008 4.82C126.048 4.82 126.968 5.04 127.768 5.48C128.581 5.92 129.214 6.56 129.668 7.4C130.134 8.24 130.368 9.26667 130.368 10.48ZM123.008 10.48C123.008 11.5067 123.161 12.2867 123.468 12.82C123.774 13.34 124.281 13.6 124.988 13.6C125.681 13.6 126.181 13.34 126.488 12.82C126.794 12.2867 126.948 11.5067 126.948 10.48C126.948 9.46667 126.794 8.70667 126.488 8.2C126.181 7.68 125.674 7.42 124.968 7.42C124.274 7.42 123.774 7.68 123.468 8.2C123.161 8.70667 123.008 9.46667 123.008 10.48ZM144.427 4.82C145.68 4.82 146.627 5.14 147.267 5.78C147.92 6.40667 148.247 7.42667 148.247 8.84V16H144.887V9.78C144.887 8.98 144.76 8.4 144.507 8.04C144.267 7.66667 143.894 7.48 143.387 7.48C142.68 7.48 142.18 7.76 141.887 8.32C141.594 8.86667 141.447 9.64667 141.447 10.66V16H138.087V9.78C138.087 8.24667 137.594 7.48 136.607 7.48C135.86 7.48 135.347 7.78667 135.067 8.4C134.8 9 134.667 9.86667 134.667 11V16H131.287V5.02H133.847L134.327 6.4H134.467C134.774 5.89333 135.207 5.50667 135.767 5.24C136.34 4.96 136.987 4.82 137.707 4.82C139.28 4.82 140.38 5.34 141.007 6.38H141.207C141.554 5.86 142.014 5.47333 142.587 5.22C143.16 4.95333 143.774 4.82 144.427 4.82Z" fill="black"/>
</svg>
